<svg width="108" height="108" viewBox="0 0 108 108" fill="none" xmlns="http://www.w3.org/2000/svg">
<g opacity="0.5" filter="url(#filter0_d_269_13130)">
<g clip-path="url(#clip0_269_13130)">
<rect x="10" y="6" width="88" height="88" rx="12" fill="#616161" fill-opacity="0.15" shape-rendering="crispEdges"/>
<g opacity="0.8">
<path d="M78.0016 50.0001C78.0016 50.5306 77.7909 51.0393 77.4158 51.4144C77.0407 51.7894 76.532 52.0001 76.0016 52.0001H36.8291L51.4166 66.5851C51.6024 66.771 51.7498 66.9916 51.8504 67.2343C51.9509 67.4771 52.0027 67.7373 52.0027 68.0001C52.0027 68.2629 51.9509 68.5231 51.8504 68.7659C51.7498 69.0087 51.6024 69.2293 51.4166 69.4151C51.2308 69.601 51.0102 69.7484 50.7674 69.8489C50.5246 69.9495 50.2644 70.0013 50.0016 70.0013C49.7388 70.0013 49.4786 69.9495 49.2358 69.8489C48.993 69.7484 48.7724 69.601 48.5866 69.4151L30.5866 51.4151C30.4006 51.2294 30.2531 51.0088 30.1525 50.766C30.0518 50.5232 30 50.263 30 50.0001C30 49.7373 30.0518 49.4771 30.1525 49.2343C30.2531 48.9915 30.4006 48.7709 30.5866 48.5851L48.5866 30.5851C48.9619 30.2099 49.4708 29.999 50.0016 29.999C50.5323 29.999 51.0413 30.2099 51.4166 30.5851C51.7919 30.9604 52.0027 31.4694 52.0027 32.0001C52.0027 32.5309 51.7919 33.0399 51.4166 33.4151L36.8291 48.0001H76.0016C76.532 48.0001 77.0407 48.2108 77.4158 48.5859C77.7909 48.961 78.0016 49.4697 78.0016 50.0001Z" fill="black"/>
</g>
<rect x="10.5" y="6.5" width="87" height="87" rx="11.5" stroke="white" stroke-opacity="0.2"/>
</g>
</g>
<defs>
<filter id="filter0_d_269_13130" x="0" y="0" width="108" height="108" filterUnits="userSpaceOnUse" color-interpolation-filters="sRGB">
<feFlood flood-opacity="0" result="BackgroundImageFix"/>
<feColorMatrix in="SourceAlpha" type="matrix" values="0 0 0 0 0 0 0 0 0 0 0 0 0 0 0 0 0 0 127 0" result="hardAlpha"/>
<feMorphology radius="4" operator="dilate" in="SourceAlpha" result="effect1_dropShadow_269_13130"/>
<feOffset dy="4"/>
<feGaussianBlur stdDeviation="3"/>
<feComposite in2="hardAlpha" operator="out"/>
<feColorMatrix type="matrix" values="0 0 0 0 0.705882 0 0 0 0 0.611765 0 0 0 0 0.772549 0 0 0 0.08 0"/>
<feBlend mode="normal" in2="BackgroundImageFix" result="effect1_dropShadow_269_13130"/>
<feBlend mode="normal" in="SourceGraphic" in2="effect1_dropShadow_269_13130" result="shape"/>
</filter>
<clipPath id="clip0_269_13130">
<rect x="10" y="6" width="88" height="88" rx="12" fill="white"/>
</clipPath>
</defs>
</svg>
