<svg width="249" height="63" viewBox="0 0 249 63" fill="none" xmlns="http://www.w3.org/2000/svg">
<path d="M21.8327 40.36C21.2993 40.36 20.6993 40.3067 20.0327 40.2C19.3927 40.0933 18.7793 39.96 18.1927 39.8C17.6327 39.64 17.1927 39.4667 16.8727 39.28C16.686 39.1733 16.5393 39.0667 16.4327 38.96C16.3527 38.8267 16.3127 38.6133 16.3127 38.32L16.1127 32.04C16.1127 31.5067 16.286 31.24 16.6327 31.24C16.926 31.24 17.126 31.48 17.2327 31.96L17.5927 33.48C18.4993 37.2933 20.1927 39.2 22.6727 39.2C24.006 39.2 25.0593 38.76 25.8327 37.88C26.6327 36.9733 27.0327 35.7067 27.0327 34.08C27.0327 32.5067 26.6193 31.04 25.7927 29.68C24.9927 28.32 23.6993 26.9733 21.9127 25.64C19.9393 24.2267 18.4993 22.8667 17.5927 21.56C16.686 20.2267 16.2327 18.8133 16.2327 17.32C16.2327 15.3467 16.9127 13.7733 18.2727 12.6C19.6593 11.4 21.4193 10.8 23.5527 10.8C24.3527 10.8 25.126 10.8933 25.8727 11.08C26.6193 11.2667 27.2327 11.5333 27.7127 11.88C27.8727 11.9867 27.9927 12.1067 28.0727 12.24C28.1793 12.3733 28.2327 12.5467 28.2327 12.76L28.3527 18.8C28.3527 19.2533 28.1793 19.48 27.8327 19.48C27.5927 19.48 27.4193 19.2933 27.3127 18.92L27.0327 17.92C26.446 15.8667 25.8327 14.3733 25.1927 13.44C24.5793 12.48 23.686 12 22.5127 12C21.366 12 20.446 12.3733 19.7527 13.12C19.086 13.8667 18.7527 14.92 18.7527 16.28C18.7527 17.4267 19.126 18.52 19.8727 19.56C20.6193 20.6 21.926 21.8667 23.7927 23.36C25.7927 24.9867 27.246 26.56 28.1527 28.08C29.086 29.5733 29.5527 31.1733 29.5527 32.88C29.5527 34.3733 29.2193 35.68 28.5527 36.8C27.886 37.92 26.966 38.8 25.7927 39.44C24.646 40.0533 23.326 40.36 21.8327 40.36ZM31.8873 40C31.4873 40 31.2873 39.8533 31.2873 39.56C31.2873 39.32 31.4607 39.16 31.8073 39.08L32.7273 38.92C33.2873 38.8133 33.6473 38.6667 33.8073 38.48C33.994 38.2933 34.0873 37.92 34.0873 37.36V13.84C34.0873 13.28 33.994 12.9067 33.8073 12.72C33.6473 12.5333 33.2873 12.3867 32.7273 12.28L31.8073 12.12C31.4607 12.04 31.2873 11.88 31.2873 11.64C31.2873 11.3467 31.4873 11.2 31.8873 11.2H39.2073C39.6073 11.2 39.8073 11.36 39.8073 11.68C39.8073 11.92 39.6607 12.0667 39.3673 12.12L38.2873 12.28C37.7273 12.36 37.354 12.5067 37.1673 12.72C37.0073 12.9333 36.9273 13.32 36.9273 13.88V23.92C36.9273 24.2933 37.114 24.48 37.4873 24.48H45.4073C45.7807 24.48 45.9673 24.2933 45.9673 23.92V13.88C45.9673 13.32 45.874 12.9333 45.6873 12.72C45.5273 12.5067 45.1673 12.36 44.6073 12.28L43.5273 12.12C43.234 12.0667 43.0873 11.92 43.0873 11.68C43.0873 11.36 43.2873 11.2 43.6873 11.2H51.0073C51.4073 11.2 51.6073 11.3467 51.6073 11.64C51.6073 11.88 51.434 12.04 51.0873 12.12L50.1673 12.28C49.6073 12.3867 49.234 12.5333 49.0473 12.72C48.8873 12.9067 48.8073 13.28 48.8073 13.84V37.36C48.8073 37.92 48.8873 38.2933 49.0473 38.48C49.234 38.6667 49.6073 38.8133 50.1673 38.92L51.0873 39.08C51.434 39.16 51.6073 39.32 51.6073 39.56C51.6073 39.8533 51.4073 40 51.0073 40H43.6873C43.2873 40 43.0873 39.84 43.0873 39.52C43.0873 39.28 43.234 39.1333 43.5273 39.08L44.6073 38.92C45.1673 38.84 45.5273 38.6933 45.6873 38.48C45.874 38.2667 45.9673 37.88 45.9673 37.32V26.24C45.9673 25.8667 45.7807 25.68 45.4073 25.68H37.4873C37.114 25.68 36.9273 25.8667 36.9273 26.24V37.32C36.9273 37.88 37.0073 38.2667 37.1673 38.48C37.354 38.6933 37.7273 38.84 38.2873 38.92L39.3673 39.08C39.6607 39.1333 39.8073 39.28 39.8073 39.52C39.8073 39.84 39.6073 40 39.2073 40H31.8873ZM70.3633 40.36C68.0433 40.36 66.5633 38.84 65.9233 35.8L65.0033 31.36C64.7099 29.92 64.3766 28.8267 64.0033 28.08C63.6566 27.3333 63.1633 26.8267 62.5233 26.56C61.9099 26.2933 61.0566 26.16 59.9633 26.16C59.5899 26.16 59.2966 26.2667 59.0833 26.48C58.8699 26.6667 58.7633 26.9067 58.7633 27.2V37.2C58.7633 37.76 58.8699 38.1467 59.0833 38.36C59.2966 38.5467 59.7766 38.7067 60.5233 38.84L62.0033 39.08C62.2966 39.1333 62.4433 39.28 62.4433 39.52C62.4433 39.84 62.2433 40 61.8433 40H53.7233C53.3233 40 53.1233 39.8533 53.1233 39.56C53.1233 39.32 53.2966 39.16 53.6433 39.08L54.5633 38.92C55.1233 38.8133 55.4833 38.6667 55.6433 38.48C55.8299 38.2933 55.9233 37.92 55.9233 37.36V13.84C55.9233 13.28 55.8299 12.9067 55.6433 12.72C55.4833 12.5333 55.1233 12.3867 54.5633 12.28L53.6433 12.12C53.2966 12.04 53.1233 11.88 53.1233 11.64C53.1233 11.3467 53.3233 11.2 53.7233 11.2H61.8433C63.4166 11.2 64.8166 11.5067 66.0433 12.12C67.2699 12.7333 68.2299 13.5867 68.9233 14.68C69.6166 15.7467 69.9633 16.9867 69.9633 18.4C69.9633 20.08 69.4566 21.6 68.4433 22.96C67.4299 24.2933 66.1499 25.24 64.6033 25.8C64.4166 25.8533 64.3099 25.9467 64.2833 26.08C64.2833 26.1867 64.3766 26.28 64.5633 26.36C65.4166 26.76 66.0833 27.32 66.5633 28.04C67.0699 28.76 67.4566 29.72 67.7233 30.92L68.6033 35C68.8966 36.3867 69.2433 37.3733 69.6433 37.96C70.0433 38.5467 70.5499 38.84 71.1633 38.84C71.3766 38.84 71.5633 38.8133 71.7233 38.76C71.9099 38.68 72.1366 38.5467 72.4033 38.36C72.6166 38.2267 72.8166 38.2 73.0033 38.28C73.1899 38.3333 73.2833 38.4667 73.2833 38.68C73.2833 39.1333 72.9899 39.5333 72.4033 39.88C71.8166 40.2 71.1366 40.36 70.3633 40.36ZM61.4433 25.16C63.2566 25.16 64.6299 24.56 65.5633 23.36C66.4966 22.1333 66.9633 20.5067 66.9633 18.48C66.9633 16.5067 66.4166 14.9733 65.3233 13.88C64.2566 12.76 62.7766 12.2 60.8833 12.2C59.4699 12.2 58.7633 12.7333 58.7633 13.8V22.96C58.7633 24.4267 59.6566 25.16 61.4433 25.16ZM73.7623 40C73.3623 40 73.1623 39.8533 73.1623 39.56C73.1623 39.32 73.3357 39.16 73.6823 39.08L74.6023 38.92C75.1623 38.8133 75.5223 38.6667 75.6823 38.48C75.869 38.2933 75.9623 37.92 75.9623 37.36V13.84C75.9623 13.28 75.869 12.9067 75.6823 12.72C75.5223 12.5333 75.1623 12.3867 74.6023 12.28L73.6823 12.12C73.3357 12.04 73.1623 11.88 73.1623 11.64C73.1623 11.3467 73.3623 11.2 73.7623 11.2H81.0023C81.4023 11.2 81.6023 11.3467 81.6023 11.64C81.6023 11.88 81.429 12.04 81.0823 12.12L80.1623 12.28C79.6023 12.3867 79.229 12.5333 79.0423 12.72C78.8823 12.9067 78.8023 13.28 78.8023 13.84V37.36C78.8023 37.92 78.8823 38.2933 79.0423 38.48C79.229 38.6667 79.6023 38.8133 80.1623 38.92L81.0823 39.08C81.429 39.16 81.6023 39.32 81.6023 39.56C81.6023 39.8533 81.4023 40 81.0023 40H73.7623ZM90.5202 40C90.1202 40 89.9202 39.8533 89.9202 39.56C89.9202 39.32 90.0935 39.16 90.4402 39.08L91.3602 38.92C91.9202 38.8133 92.2802 38.6667 92.4402 38.48C92.6268 38.2933 92.7202 37.92 92.7202 37.36V13.84C92.7202 13.28 92.6268 12.9067 92.4402 12.72C92.2802 12.5333 91.9202 12.3867 91.3602 12.28L90.4402 12.12C90.0935 12.04 89.9202 11.88 89.9202 11.64C89.9202 11.3467 90.1202 11.2 90.5202 11.2H97.7602C98.1602 11.2 98.3602 11.3467 98.3602 11.64C98.3602 11.88 98.1868 12.04 97.8402 12.12L96.9202 12.28C96.3602 12.3867 95.9868 12.5333 95.8002 12.72C95.6402 12.9067 95.5602 13.28 95.5602 13.84V37.36C95.5602 37.92 95.6402 38.2933 95.8002 38.48C95.9868 38.6667 96.3602 38.8133 96.9202 38.92L97.8402 39.08C98.1868 39.16 98.3602 39.32 98.3602 39.56C98.3602 39.8533 98.1602 40 97.7602 40H90.5202ZM116.281 40.36C115.854 40.36 115.494 40.04 115.201 39.4L104.361 15.88C104.281 15.6933 104.174 15.6133 104.041 15.64C103.934 15.6667 103.881 15.7867 103.881 16V36.56C103.881 37.3067 104.001 37.88 104.241 38.28C104.508 38.6533 104.974 38.8933 105.641 39L106.161 39.08C106.508 39.1067 106.681 39.2667 106.681 39.56C106.681 39.8533 106.481 40 106.081 40H100.361C99.9611 40 99.7611 39.8533 99.7611 39.56C99.7611 39.2667 99.9344 39.1067 100.281 39.08L100.801 39C101.494 38.8933 101.974 38.6533 102.241 38.28C102.508 37.88 102.641 37.3067 102.641 36.56V13.84C102.641 13.28 102.548 12.9067 102.361 12.72C102.201 12.5333 101.814 12.3867 101.201 12.28L100.281 12.12C99.9344 12.04 99.7611 11.88 99.7611 11.64C99.7611 11.3467 99.9611 11.2 100.361 11.2H104.641C105.308 11.2 105.774 11.4933 106.041 12.08L115.481 32.84C115.561 33 115.654 33.0667 115.761 33.04C115.894 33.0133 115.961 32.92 115.961 32.76V14.64C115.961 13.7867 115.814 13.2 115.521 12.88C115.228 12.5333 114.854 12.32 114.401 12.24L113.681 12.12C113.334 12.04 113.161 11.88 113.161 11.64C113.161 11.3467 113.361 11.2 113.761 11.2H119.481C119.881 11.2 120.081 11.3467 120.081 11.64C120.081 11.9333 119.908 12.0933 119.561 12.12L119.041 12.2C118.348 12.3067 117.868 12.5333 117.601 12.88C117.334 13.2 117.201 13.7867 117.201 14.64V39.08C117.201 39.56 117.108 39.8933 116.921 40.08C116.761 40.2667 116.548 40.36 116.281 40.36ZM122.083 40C121.683 40 121.483 39.8533 121.483 39.56C121.483 39.32 121.656 39.16 122.003 39.08L122.923 38.92C123.829 38.76 124.283 38.24 124.283 37.36V13.84C124.283 13.28 124.189 12.9067 124.003 12.72C123.843 12.5333 123.483 12.3867 122.923 12.28L122.003 12.12C121.656 12.04 121.483 11.88 121.483 11.64C121.483 11.3467 121.683 11.2 122.083 11.2H130.163C132.243 11.2 134.043 11.8133 135.563 13.04C137.083 14.24 138.256 15.9333 139.083 18.12C139.909 20.3067 140.323 22.84 140.323 25.72C140.323 28.6267 139.883 31.1467 139.003 33.28C138.149 35.4133 136.936 37.0667 135.363 38.24C133.789 39.4133 131.923 40 129.763 40H122.083ZM129.923 38.96C132.296 38.96 134.096 37.8267 135.323 35.56C136.576 33.2933 137.203 30.0133 137.203 25.72C137.203 21.4533 136.603 18.1467 135.403 15.8C134.229 13.4267 132.483 12.24 130.163 12.24C128.136 12.24 127.123 13.2133 127.123 15.16V36.04C127.123 37.1067 127.336 37.8667 127.763 38.32C128.216 38.7467 128.936 38.96 129.923 38.96ZM152.621 40.36C151.181 40.36 149.901 40.0267 148.781 39.36C147.688 38.6667 146.834 37.72 146.221 36.52C145.608 35.2933 145.301 33.8933 145.301 32.32V13.84C145.301 13.28 145.208 12.9067 145.021 12.72C144.861 12.5333 144.501 12.3867 143.941 12.28L143.021 12.12C142.674 12.04 142.501 11.88 142.501 11.64C142.501 11.3467 142.701 11.2 143.101 11.2H150.421C150.821 11.2 151.021 11.36 151.021 11.68C151.021 11.92 150.874 12.0667 150.581 12.12L149.501 12.28C148.968 12.36 148.608 12.5067 148.421 12.72C148.234 12.9333 148.141 13.32 148.141 13.88V32.36C148.141 34.3867 148.594 35.96 149.501 37.08C150.408 38.2 151.674 38.76 153.301 38.76C154.954 38.76 156.234 38.2 157.141 37.08C158.048 35.96 158.501 34.3867 158.501 32.36V14.68C158.501 13.24 158.048 12.44 157.141 12.28L156.061 12.12C155.768 12.0667 155.621 11.92 155.621 11.68C155.621 11.36 155.821 11.2 156.221 11.2H161.981C162.381 11.2 162.581 11.3467 162.581 11.64C162.581 11.88 162.408 12.04 162.061 12.12L161.141 12.28C160.234 12.44 159.781 13.2267 159.781 14.64V32.32C159.781 34.7467 159.128 36.6933 157.821 38.16C156.514 39.6267 154.781 40.36 152.621 40.36ZM170.036 40.36C169.502 40.36 168.902 40.3067 168.236 40.2C167.596 40.0933 166.982 39.96 166.396 39.8C165.836 39.64 165.396 39.4667 165.076 39.28C164.889 39.1733 164.742 39.0667 164.636 38.96C164.556 38.8267 164.516 38.6133 164.516 38.32L164.316 32.04C164.316 31.5067 164.489 31.24 164.836 31.24C165.129 31.24 165.329 31.48 165.436 31.96L165.796 33.48C166.702 37.2933 168.396 39.2 170.876 39.2C172.209 39.2 173.262 38.76 174.036 37.88C174.836 36.9733 175.236 35.7067 175.236 34.08C175.236 32.5067 174.822 31.04 173.996 29.68C173.196 28.32 171.902 26.9733 170.116 25.64C168.142 24.2267 166.702 22.8667 165.796 21.56C164.889 20.2267 164.436 18.8133 164.436 17.32C164.436 15.3467 165.116 13.7733 166.476 12.6C167.862 11.4 169.622 10.8 171.756 10.8C172.556 10.8 173.329 10.8933 174.076 11.08C174.822 11.2667 175.436 11.5333 175.916 11.88C176.076 11.9867 176.196 12.1067 176.276 12.24C176.382 12.3733 176.436 12.5467 176.436 12.76L176.556 18.8C176.556 19.2533 176.382 19.48 176.036 19.48C175.796 19.48 175.622 19.2933 175.516 18.92L175.236 17.92C174.649 15.8667 174.036 14.3733 173.396 13.44C172.782 12.48 171.889 12 170.716 12C169.569 12 168.649 12.3733 167.956 13.12C167.289 13.8667 166.956 14.92 166.956 16.28C166.956 17.4267 167.329 18.52 168.076 19.56C168.822 20.6 170.129 21.8667 171.996 23.36C173.996 24.9867 175.449 26.56 176.356 28.08C177.289 29.5733 177.756 31.1733 177.756 32.88C177.756 34.3733 177.422 35.68 176.756 36.8C176.089 37.92 175.169 38.8 173.996 39.44C172.849 40.0533 171.529 40.36 170.036 40.36ZM183.372 40C182.972 40 182.772 39.8533 182.772 39.56C182.772 39.2667 182.946 39.1067 183.292 39.08L185.092 38.8C185.626 38.72 185.986 38.5867 186.172 38.4C186.359 38.1867 186.452 37.8 186.452 37.24V13.24C186.452 12.8667 186.372 12.6 186.212 12.44C186.052 12.28 185.719 12.2 185.212 12.2C184.226 12.2 183.252 12.6267 182.292 13.48C181.332 14.3333 180.706 15.7067 180.412 17.6L180.212 18.92C180.159 19.2667 179.972 19.44 179.652 19.44C179.252 19.44 179.079 19.2133 179.132 18.76L179.492 11.52C179.546 10.9067 179.786 10.6 180.212 10.6C180.399 10.6 180.572 10.6533 180.732 10.76C180.892 10.84 181.159 10.9333 181.532 11.04C181.932 11.1467 182.559 11.2 183.412 11.2H192.332C193.186 11.2 193.799 11.1467 194.172 11.04C194.572 10.9333 194.852 10.84 195.012 10.76C195.199 10.6533 195.372 10.6 195.532 10.6C195.959 10.6 196.199 10.9067 196.252 11.52L196.612 18.76C196.666 19.2133 196.492 19.44 196.092 19.44C195.772 19.44 195.586 19.2667 195.532 18.92L195.332 17.6C195.066 15.7067 194.452 14.3333 193.492 13.48C192.532 12.6267 191.546 12.2 190.532 12.2C190.026 12.2 189.692 12.28 189.532 12.44C189.372 12.6 189.292 12.8667 189.292 13.24V37.24C189.292 37.8 189.386 38.1867 189.572 38.4C189.786 38.5867 190.146 38.72 190.652 38.8L192.452 39.08C192.799 39.1067 192.972 39.2667 192.972 39.56C192.972 39.8533 192.772 40 192.372 40H183.372ZM215.09 40.36C212.77 40.36 211.29 38.84 210.65 35.8L209.73 31.36C209.437 29.92 209.103 28.8267 208.73 28.08C208.383 27.3333 207.89 26.8267 207.25 26.56C206.637 26.2933 205.783 26.16 204.69 26.16C204.317 26.16 204.023 26.2667 203.81 26.48C203.597 26.6667 203.49 26.9067 203.49 27.2V37.2C203.49 37.76 203.597 38.1467 203.81 38.36C204.023 38.5467 204.503 38.7067 205.25 38.84L206.73 39.08C207.023 39.1333 207.17 39.28 207.17 39.52C207.17 39.84 206.97 40 206.57 40H198.45C198.05 40 197.85 39.8533 197.85 39.56C197.85 39.32 198.023 39.16 198.37 39.08L199.29 38.92C199.85 38.8133 200.21 38.6667 200.37 38.48C200.557 38.2933 200.65 37.92 200.65 37.36V13.84C200.65 13.28 200.557 12.9067 200.37 12.72C200.21 12.5333 199.85 12.3867 199.29 12.28L198.37 12.12C198.023 12.04 197.85 11.88 197.85 11.64C197.85 11.3467 198.05 11.2 198.45 11.2H206.57C208.143 11.2 209.543 11.5067 210.77 12.12C211.997 12.7333 212.957 13.5867 213.65 14.68C214.343 15.7467 214.69 16.9867 214.69 18.4C214.69 20.08 214.183 21.6 213.17 22.96C212.157 24.2933 210.877 25.24 209.33 25.8C209.143 25.8533 209.037 25.9467 209.01 26.08C209.01 26.1867 209.103 26.28 209.29 26.36C210.143 26.76 210.81 27.32 211.29 28.04C211.797 28.76 212.183 29.72 212.45 30.92L213.33 35C213.623 36.3867 213.97 37.3733 214.37 37.96C214.77 38.5467 215.277 38.84 215.89 38.84C216.103 38.84 216.29 38.8133 216.45 38.76C216.637 38.68 216.863 38.5467 217.13 38.36C217.343 38.2267 217.543 38.2 217.73 38.28C217.917 38.3333 218.01 38.4667 218.01 38.68C218.01 39.1333 217.717 39.5333 217.13 39.88C216.543 40.2 215.863 40.36 215.09 40.36ZM206.17 25.16C207.983 25.16 209.357 24.56 210.29 23.36C211.223 22.1333 211.69 20.5067 211.69 18.48C211.69 16.5067 211.143 14.9733 210.05 13.88C208.983 12.76 207.503 12.2 205.61 12.2C204.197 12.2 203.49 12.7333 203.49 13.8V22.96C203.49 24.4267 204.383 25.16 206.17 25.16ZM221.545 40C221.145 40 220.945 39.8533 220.945 39.56C220.945 39.2667 221.118 39.1067 221.465 39.08L223.265 38.8C223.798 38.72 224.158 38.5867 224.345 38.4C224.532 38.1867 224.625 37.8 224.625 37.24V27.8C224.625 27.2133 224.492 26.64 224.225 26.08L218.345 13.76C218.158 13.3067 217.945 12.96 217.705 12.72C217.465 12.48 217.118 12.3067 216.665 12.2L216.305 12.12C215.932 12.04 215.745 11.8667 215.745 11.6C215.745 11.3333 215.945 11.2 216.345 11.2H223.185C223.558 11.2 223.745 11.3467 223.745 11.64C223.745 11.9333 223.518 12.0933 223.065 12.12L222.305 12.2C221.852 12.2267 221.532 12.3733 221.345 12.64C221.158 12.9067 221.198 13.32 221.465 13.88L226.385 24.36C226.492 24.5467 226.625 24.64 226.785 24.64C226.945 24.64 227.078 24.5467 227.185 24.36L231.905 14.72C232.252 14.0267 232.332 13.4667 232.145 13.04C231.985 12.5867 231.598 12.32 230.985 12.24L230.105 12.12C229.652 12.04 229.425 11.88 229.425 11.64C229.425 11.3467 229.612 11.2 229.985 11.2H235.665C236.065 11.2 236.265 11.3333 236.265 11.6C236.265 11.8667 236.078 12.04 235.705 12.12L235.305 12.2C234.932 12.28 234.598 12.5067 234.305 12.88C234.038 13.2533 233.678 13.88 233.225 14.76L227.985 25.28C227.798 25.6533 227.665 26.0133 227.585 26.36C227.505 26.68 227.465 27.0533 227.465 27.48V37.24C227.465 37.8 227.558 38.1867 227.745 38.4C227.958 38.5867 228.318 38.72 228.825 38.8L230.625 39.08C230.972 39.1067 231.145 39.2667 231.145 39.56C231.145 39.8533 230.945 40 230.545 40H221.545Z" fill="url(#paint0_linear_252_13139)"/>
<path d="M29.7947 55V47.7273H34.1555V48.5085H30.6754V50.9659H33.8288V51.7472H30.6754V55H29.7947ZM41.8002 51.3636C41.8002 52.1307 41.6618 52.7936 41.3848 53.3523C41.1078 53.911 40.7278 54.3419 40.2449 54.6449C39.7619 54.9479 39.2103 55.0994 38.59 55.0994C37.9698 55.0994 37.4181 54.9479 36.9352 54.6449C36.4522 54.3419 36.0723 53.911 35.7953 53.3523C35.5183 52.7936 35.3798 52.1307 35.3798 51.3636C35.3798 50.5966 35.5183 49.9337 35.7953 49.375C36.0723 48.8163 36.4522 48.3854 36.9352 48.0824C37.4181 47.7794 37.9698 47.6278 38.59 47.6278C39.2103 47.6278 39.7619 47.7794 40.2449 48.0824C40.7278 48.3854 41.1078 48.8163 41.3848 49.375C41.6618 49.9337 41.8002 50.5966 41.8002 51.3636ZM40.948 51.3636C40.948 50.7339 40.8426 50.2024 40.6319 49.7692C40.4236 49.3359 40.1407 49.008 39.7832 48.7855C39.4281 48.563 39.0304 48.4517 38.59 48.4517C38.1497 48.4517 37.7508 48.563 37.3933 48.7855C37.0382 49.008 36.7553 49.3359 36.5446 49.7692C36.3362 50.2024 36.2321 50.7339 36.2321 51.3636C36.2321 51.9934 36.3362 52.5249 36.5446 52.9581C36.7553 53.3913 37.0382 53.7192 37.3933 53.9418C37.7508 54.1643 38.1497 54.2756 38.59 54.2756C39.0304 54.2756 39.4281 54.1643 39.7832 53.9418C40.1407 53.7192 40.4236 53.3913 40.6319 52.9581C40.8426 52.5249 40.948 51.9934 40.948 51.3636ZM49.4174 51.3636C49.4174 52.1307 49.2789 52.7936 49.002 53.3523C48.725 53.911 48.345 54.3419 47.862 54.6449C47.3791 54.9479 46.8275 55.0994 46.2072 55.0994C45.5869 55.0994 45.0353 54.9479 44.5524 54.6449C44.0694 54.3419 43.6895 53.911 43.4125 53.3523C43.1355 52.7936 42.997 52.1307 42.997 51.3636C42.997 50.5966 43.1355 49.9337 43.4125 49.375C43.6895 48.8163 44.0694 48.3854 44.5524 48.0824C45.0353 47.7794 45.5869 47.6278 46.2072 47.6278C46.8275 47.6278 47.3791 47.7794 47.862 48.0824C48.345 48.3854 48.725 48.8163 49.002 49.375C49.2789 49.9337 49.4174 50.5966 49.4174 51.3636ZM48.5652 51.3636C48.5652 50.7339 48.4598 50.2024 48.2491 49.7692C48.0408 49.3359 47.7579 49.008 47.4004 48.7855C47.0453 48.563 46.6475 48.4517 46.2072 48.4517C45.7669 48.4517 45.368 48.563 45.0105 48.7855C44.6554 49.008 44.3725 49.3359 44.1618 49.7692C43.9534 50.2024 43.8493 50.7339 43.8493 51.3636C43.8493 51.9934 43.9534 52.5249 44.1618 52.9581C44.3725 53.3913 44.6554 53.7192 45.0105 53.9418C45.368 54.1643 45.7669 54.2756 46.2072 54.2756C46.6475 54.2756 47.0453 54.1643 47.4004 53.9418C47.7579 53.7192 48.0408 53.3913 48.2491 52.9581C48.4598 52.5249 48.5652 51.9934 48.5652 51.3636ZM53.1426 55H50.8983V47.7273H53.242C53.9475 47.7273 54.5512 47.8729 55.0531 48.1641C55.555 48.4529 55.9397 48.8684 56.2072 49.4105C56.4747 49.9503 56.6085 50.5966 56.6085 51.3494C56.6085 52.107 56.4735 52.7592 56.2037 53.3061C55.9338 53.8506 55.5408 54.2696 55.0247 54.5632C54.5086 54.8544 53.8812 55 53.1426 55ZM51.7789 54.2188H53.0858C53.6871 54.2188 54.1854 54.1027 54.5808 53.8707C54.9761 53.6387 55.2709 53.3085 55.465 52.88C55.6592 52.4515 55.7562 51.9413 55.7562 51.3494C55.7562 50.7623 55.6603 50.2569 55.4686 49.8331C55.2768 49.407 54.9904 49.0803 54.6092 48.853C54.228 48.6233 53.7534 48.5085 53.1852 48.5085H51.7789V54.2188ZM62.8443 55.0994C62.3661 55.0994 61.9541 55.0118 61.6085 54.8366C61.2628 54.6615 60.9965 54.4212 60.8095 54.1158C60.6225 53.8104 60.5289 53.4612 60.5289 53.0682C60.5289 52.7652 60.5929 52.4964 60.7207 52.2621C60.8509 52.0253 61.0297 51.8063 61.2569 51.6051C61.4866 51.4015 61.7505 51.1979 62.0488 50.9943L63.1 50.2131C63.3059 50.0781 63.4705 49.9337 63.5936 49.7798C63.719 49.6259 63.7818 49.4247 63.7818 49.1761C63.7818 48.9915 63.7001 48.8127 63.5368 48.6399C63.3758 48.4671 63.1639 48.3807 62.9011 48.3807C62.7164 48.3807 62.5531 48.428 62.411 48.5227C62.2714 48.6151 62.1613 48.7334 62.0808 48.8778C62.0027 49.0199 61.9636 49.1667 61.9636 49.3182C61.9636 49.4886 62.0098 49.6615 62.1021 49.8366C62.1968 50.0095 62.3163 50.187 62.4608 50.3693C62.6075 50.5492 62.7591 50.7339 62.9153 50.9233L66.2534 55H65.2449L62.4892 51.6761C62.2335 51.3684 62.0015 51.089 61.7931 50.8381C61.5848 50.5871 61.4191 50.3397 61.296 50.0959C61.1729 49.852 61.1113 49.5881 61.1113 49.304C61.1113 48.9773 61.1835 48.6908 61.3279 48.4446C61.4747 48.196 61.6795 48.0031 61.9423 47.8658C62.2074 47.7261 62.5176 47.6562 62.8727 47.6562C63.2373 47.6562 63.551 47.7273 63.8137 47.8693C64.0765 48.009 64.2789 48.1948 64.421 48.4268C64.563 48.6565 64.6341 48.9062 64.6341 49.1761C64.6341 49.5241 64.5476 49.826 64.3748 50.0817C64.202 50.3374 63.9664 50.5753 63.6681 50.7955L62.2193 51.875C61.8926 52.1165 61.6712 52.3509 61.5552 52.5781C61.4392 52.8054 61.3812 52.9687 61.3812 53.0682C61.3812 53.2955 61.4404 53.5073 61.5588 53.7038C61.6771 53.9003 61.844 54.0589 62.0595 54.1797C62.2749 54.3004 62.527 54.3608 62.8159 54.3608C63.0905 54.3608 63.358 54.3028 63.6184 54.1868C63.8788 54.0684 64.1144 53.898 64.3251 53.6754C64.5382 53.4529 64.7063 53.1854 64.8294 52.8729C64.9548 52.5604 65.0176 52.2088 65.0176 51.8182H65.8272C65.8272 52.3011 65.7716 52.6953 65.6603 53.0007C65.5491 53.3061 65.4236 53.5452 65.2839 53.718C65.1442 53.8909 65.0318 54.0199 64.9466 54.1051C64.9181 54.1406 64.8921 54.1761 64.8684 54.2116C64.8448 54.2472 64.8187 54.2827 64.7903 54.3182C64.5559 54.581 64.26 54.7775 63.9025 54.9077C63.545 55.0355 63.1923 55.0994 62.8443 55.0994ZM70.1072 55V47.7273H74.468V48.5085H70.9879V50.9659H74.1413V51.7472H70.9879V55H70.1072ZM75.9764 55V47.7273H78.4338C79.002 47.7273 79.4683 47.8243 79.8329 48.0185C80.1975 48.2102 80.4674 48.4742 80.6426 48.8104C80.8178 49.1465 80.9054 49.5289 80.9054 49.9574C80.9054 50.3859 80.8178 50.7659 80.6426 51.0973C80.4674 51.4287 80.1987 51.6892 79.8365 51.8786C79.4743 52.0656 79.0114 52.1591 78.448 52.1591H76.4593V51.3636H78.4196C78.8078 51.3636 79.1203 51.3068 79.3571 51.1932C79.5962 51.0795 79.769 50.9186 79.8755 50.7102C79.9844 50.4995 80.0389 50.2486 80.0389 49.9574C80.0389 49.6662 79.9844 49.4117 79.8755 49.1939C79.7666 48.9761 79.5926 48.808 79.3535 48.6896C79.1144 48.5689 78.7984 48.5085 78.4054 48.5085H76.8571V55H75.9764ZM79.3997 51.733L81.1895 55H80.1667L78.4054 51.733H79.3997ZM87.1456 47.7273H88.0263V52.5426C88.0263 53.0398 87.9091 53.4837 87.6747 53.8743C87.4427 54.2625 87.1148 54.5691 86.6911 54.794C86.2673 55.0166 85.7701 55.1278 85.1996 55.1278C84.629 55.1278 84.1319 55.0166 83.7081 54.794C83.2843 54.5691 82.9553 54.2625 82.7209 53.8743C82.4889 53.4837 82.3729 53.0398 82.3729 52.5426V47.7273H83.2536V52.4716C83.2536 52.8267 83.3317 53.1428 83.4879 53.4197C83.6442 53.6944 83.8667 53.911 84.1555 54.0696C84.4467 54.2259 84.7947 54.304 85.1996 54.304C85.6044 54.304 85.9524 54.2259 86.2436 54.0696C86.5348 53.911 86.7573 53.6944 86.9112 53.4197C87.0675 53.1428 87.1456 52.8267 87.1456 52.4716V47.7273ZM90.6657 47.7273V55H89.785V47.7273H90.6657ZM92.0337 48.5085V47.7273H97.4883V48.5085H95.2013V55H94.3207V48.5085H92.0337ZM101.66 55V47.7273H104.117C104.688 47.7273 105.154 47.8303 105.517 48.0362C105.881 48.2398 106.151 48.5156 106.326 48.8636C106.501 49.2116 106.589 49.5999 106.589 50.0284C106.589 50.4569 106.501 50.8464 106.326 51.1967C106.153 51.5471 105.886 51.8265 105.524 52.0348C105.161 52.2408 104.697 52.3438 104.132 52.3438H102.37V51.5625H104.103C104.494 51.5625 104.807 51.495 105.044 51.3601C105.281 51.2251 105.453 51.0429 105.559 50.8132C105.668 50.5812 105.722 50.3196 105.722 50.0284C105.722 49.7372 105.668 49.4768 105.559 49.2472C105.453 49.0175 105.28 48.8376 105.041 48.7074C104.802 48.5748 104.484 48.5085 104.089 48.5085H102.541V55H101.66ZM108.008 55V47.7273H110.465C111.033 47.7273 111.5 47.8243 111.864 48.0185C112.229 48.2102 112.499 48.4742 112.674 48.8104C112.849 49.1465 112.937 49.5289 112.937 49.9574C112.937 50.3859 112.849 50.7659 112.674 51.0973C112.499 51.4287 112.23 51.6892 111.868 51.8786C111.506 52.0656 111.043 52.1591 110.479 52.1591H108.491V51.3636H110.451C110.839 51.3636 111.152 51.3068 111.388 51.1932C111.627 51.0795 111.8 50.9186 111.907 50.7102C112.016 50.4995 112.07 50.2486 112.07 49.9574C112.07 49.6662 112.016 49.4117 111.907 49.1939C111.798 48.9761 111.624 48.808 111.385 48.6896C111.146 48.5689 110.83 48.5085 110.437 48.5085H108.888V55H108.008ZM111.431 51.733L113.221 55H112.198L110.437 51.733H111.431ZM120.54 51.3636C120.54 52.1307 120.402 52.7936 120.125 53.3523C119.848 53.911 119.468 54.3419 118.985 54.6449C118.502 54.9479 117.951 55.0994 117.33 55.0994C116.71 55.0994 116.158 54.9479 115.675 54.6449C115.192 54.3419 114.813 53.911 114.536 53.3523C114.259 52.7936 114.12 52.1307 114.12 51.3636C114.12 50.5966 114.259 49.9337 114.536 49.375C114.813 48.8163 115.192 48.3854 115.675 48.0824C116.158 47.7794 116.71 47.6278 117.33 47.6278C117.951 47.6278 118.502 47.7794 118.985 48.0824C119.468 48.3854 119.848 48.8163 120.125 49.375C120.402 49.9337 120.54 50.5966 120.54 51.3636ZM119.688 51.3636C119.688 50.7339 119.583 50.2024 119.372 49.7692C119.164 49.3359 118.881 49.008 118.523 48.7855C118.168 48.563 117.771 48.4517 117.33 48.4517C116.89 48.4517 116.491 48.563 116.134 48.7855C115.778 49.008 115.496 49.3359 115.285 49.7692C115.076 50.2024 114.972 50.7339 114.972 51.3636C114.972 51.9934 115.076 52.5249 115.285 52.9581C115.496 53.3913 115.778 53.7192 116.134 53.9418C116.491 54.1643 116.89 54.2756 117.33 54.2756C117.771 54.2756 118.168 54.1643 118.523 53.9418C118.881 53.7192 119.164 53.3913 119.372 52.9581C119.583 52.5249 119.688 51.9934 119.688 51.3636ZM127.874 50H126.993C126.941 49.7467 126.85 49.5241 126.719 49.3324C126.592 49.1406 126.435 48.9796 126.251 48.8494C126.068 48.7169 125.866 48.6174 125.643 48.5511C125.421 48.4848 125.189 48.4517 124.947 48.4517C124.507 48.4517 124.108 48.563 123.751 48.7855C123.396 49.008 123.113 49.3359 122.902 49.7692C122.694 50.2024 122.589 50.7339 122.589 51.3636C122.589 51.9934 122.694 52.5249 122.902 52.9581C123.113 53.3913 123.396 53.7192 123.751 53.9418C124.108 54.1643 124.507 54.2756 124.947 54.2756C125.189 54.2756 125.421 54.2424 125.643 54.1761C125.866 54.1098 126.068 54.0116 126.251 53.8814C126.435 53.7488 126.592 53.5866 126.719 53.3949C126.85 53.2008 126.941 52.9782 126.993 52.7273H127.874C127.807 53.099 127.687 53.4316 127.511 53.7251C127.336 54.0187 127.118 54.2685 126.858 54.4744C126.598 54.678 126.305 54.8331 125.981 54.9396C125.659 55.0462 125.314 55.0994 124.947 55.0994C124.327 55.0994 123.776 54.9479 123.293 54.6449C122.81 54.3419 122.43 53.911 122.153 53.3523C121.876 52.7936 121.737 52.1307 121.737 51.3636C121.737 50.5966 121.876 49.9337 122.153 49.375C122.43 48.8163 122.81 48.3854 123.293 48.0824C123.776 47.7794 124.327 47.6278 124.947 47.6278C125.314 47.6278 125.659 47.6811 125.981 47.7876C126.305 47.8942 126.598 48.0504 126.858 48.2564C127.118 48.46 127.336 48.7086 127.511 49.0021C127.687 49.2933 127.807 49.6259 127.874 50ZM129.297 55V47.7273H133.686V48.5085H130.177V50.9659H133.459V51.7472H130.177V54.2188H133.743V55H129.297ZM139.251 49.5455C139.208 49.1856 139.035 48.9062 138.732 48.7074C138.429 48.5085 138.057 48.4091 137.617 48.4091C137.295 48.4091 137.013 48.4612 136.772 48.5653C136.533 48.6695 136.346 48.8127 136.211 48.995C136.078 49.1773 136.012 49.3845 136.012 49.6165C136.012 49.8106 136.058 49.9775 136.15 50.1172C136.245 50.2545 136.366 50.3693 136.513 50.4616C136.659 50.5516 136.813 50.6262 136.974 50.6854C137.135 50.7422 137.283 50.7884 137.418 50.8239L138.157 51.0227C138.346 51.0724 138.557 51.1411 138.789 51.2287C139.023 51.3163 139.247 51.4358 139.46 51.5874C139.675 51.7365 139.853 51.9283 139.993 52.1626C140.132 52.397 140.202 52.6847 140.202 53.0256C140.202 53.4186 140.099 53.7737 139.893 54.0909C139.69 54.4081 139.391 54.6603 138.998 54.8473C138.608 55.0343 138.133 55.1278 137.574 55.1278C137.054 55.1278 136.603 55.0438 136.221 54.8757C135.843 54.7076 135.544 54.4732 135.327 54.1726C135.111 53.8719 134.989 53.5227 134.961 53.125H135.87C135.894 53.3996 135.986 53.6269 136.147 53.8068C136.31 53.9844 136.516 54.117 136.765 54.2045C137.016 54.2898 137.286 54.3324 137.574 54.3324C137.911 54.3324 138.212 54.2779 138.48 54.169C138.747 54.0578 138.959 53.9039 139.116 53.7074C139.272 53.5085 139.35 53.2765 139.35 53.0114C139.35 52.7699 139.282 52.5734 139.148 52.4219C139.013 52.2704 138.835 52.1473 138.615 52.0526C138.395 51.9579 138.157 51.875 137.901 51.804L137.006 51.5483C136.438 51.3849 135.988 51.1518 135.657 50.8487C135.325 50.5457 135.16 50.1491 135.16 49.6591C135.16 49.2519 135.27 48.8968 135.49 48.5938C135.712 48.2884 136.011 48.0516 136.385 47.8835C136.761 47.7131 137.181 47.6278 137.645 47.6278C138.114 47.6278 138.531 47.7119 138.895 47.88C139.26 48.0457 139.549 48.273 139.762 48.5618C139.977 48.8506 140.091 49.1785 140.103 49.5455H139.251ZM145.627 49.5455C145.585 49.1856 145.412 48.9062 145.109 48.7074C144.806 48.5085 144.434 48.4091 143.994 48.4091C143.672 48.4091 143.39 48.4612 143.149 48.5653C142.91 48.6695 142.723 48.8127 142.588 48.995C142.455 49.1773 142.389 49.3845 142.389 49.6165C142.389 49.8106 142.435 49.9775 142.527 50.1172C142.622 50.2545 142.743 50.3693 142.89 50.4616C143.036 50.5516 143.19 50.6262 143.351 50.6854C143.512 50.7422 143.66 50.7884 143.795 50.8239L144.534 51.0227C144.723 51.0724 144.934 51.1411 145.166 51.2287C145.4 51.3163 145.624 51.4358 145.837 51.5874C146.052 51.7365 146.23 51.9283 146.37 52.1626C146.509 52.397 146.579 52.6847 146.579 53.0256C146.579 53.4186 146.476 53.7737 146.27 54.0909C146.067 54.4081 145.768 54.6603 145.375 54.8473C144.985 55.0343 144.51 55.1278 143.951 55.1278C143.431 55.1278 142.98 55.0438 142.598 54.8757C142.22 54.7076 141.921 54.4732 141.703 54.1726C141.488 53.8719 141.366 53.5227 141.338 53.125H142.247C142.27 53.3996 142.363 53.6269 142.524 53.8068C142.687 53.9844 142.893 54.117 143.142 54.2045C143.393 54.2898 143.663 54.3324 143.951 54.3324C144.288 54.3324 144.589 54.2779 144.857 54.169C145.124 54.0578 145.336 53.9039 145.493 53.7074C145.649 53.5085 145.727 53.2765 145.727 53.0114C145.727 52.7699 145.659 52.5734 145.525 52.4219C145.39 52.2704 145.212 52.1473 144.992 52.0526C144.772 51.9579 144.534 51.875 144.278 51.804L143.383 51.5483C142.815 51.3849 142.365 51.1518 142.034 50.8487C141.702 50.5457 141.537 50.1491 141.537 49.6591C141.537 49.2519 141.647 48.8968 141.867 48.5938C142.089 48.2884 142.388 48.0516 142.762 47.8835C143.138 47.7131 143.558 47.6278 144.022 47.6278C144.491 47.6278 144.908 47.7119 145.272 47.88C145.637 48.0457 145.926 48.273 146.139 48.5618C146.354 48.8506 146.468 49.1785 146.48 49.5455H145.627ZM148.908 47.7273V55H148.027V47.7273H148.908ZM156.441 47.7273V55H155.588L151.625 49.2898H151.554V55H150.674V47.7273H151.526L155.503 53.4517H155.574V47.7273H156.441ZM163.175 50C163.096 49.7609 162.993 49.5466 162.866 49.3572C162.74 49.1655 162.59 49.0021 162.415 48.8672C162.242 48.7322 162.045 48.6293 161.825 48.5582C161.605 48.4872 161.363 48.4517 161.101 48.4517C160.67 48.4517 160.278 48.563 159.925 48.7855C159.573 49.008 159.292 49.3359 159.084 49.7692C158.875 50.2024 158.771 50.7339 158.771 51.3636C158.771 51.9934 158.876 52.5249 159.087 52.9581C159.298 53.3913 159.583 53.7192 159.943 53.9418C160.303 54.1643 160.708 54.2756 161.157 54.2756C161.574 54.2756 161.941 54.1868 162.258 54.0092C162.578 53.8293 162.827 53.576 163.004 53.2493C163.184 52.9202 163.274 52.5331 163.274 52.0881L163.544 52.1449H161.356V51.3636H164.126V52.1449C164.126 52.7438 163.998 53.2647 163.743 53.7074C163.489 54.1501 163.139 54.4934 162.692 54.7372C162.247 54.9787 161.735 55.0994 161.157 55.0994C160.514 55.0994 159.948 54.9479 159.46 54.6449C158.975 54.3419 158.596 53.911 158.324 53.3523C158.054 52.7936 157.919 52.1307 157.919 51.3636C157.919 50.7884 157.996 50.2711 158.15 49.8118C158.306 49.3501 158.526 48.9571 158.81 48.6328C159.094 48.3085 159.43 48.0599 159.819 47.8871C160.207 47.7143 160.634 47.6278 161.101 47.6278C161.484 47.6278 161.842 47.6858 162.173 47.8018C162.507 47.9155 162.804 48.0777 163.064 48.2884C163.327 48.4967 163.546 48.7464 163.721 49.0376C163.897 49.3265 164.017 49.6473 164.084 50H163.175ZM168.447 47.7273H169.498L171.97 53.7642H172.055L174.527 47.7273H175.578V55H174.754V49.4744H174.683L172.41 55H171.615L169.342 49.4744H169.271V55H168.447V47.7273ZM177.642 55H176.719L179.389 47.7273H180.298L182.969 55H182.045L179.872 48.8778H179.815L177.642 55ZM177.983 52.1591H181.704V52.9403H177.983V52.1591ZM189.612 50H188.731C188.679 49.7467 188.588 49.5241 188.458 49.3324C188.33 49.1406 188.174 48.9796 187.989 48.8494C187.807 48.7169 187.604 48.6174 187.382 48.5511C187.159 48.4848 186.927 48.4517 186.686 48.4517C186.245 48.4517 185.846 48.563 185.489 48.7855C185.134 49.008 184.851 49.3359 184.64 49.7692C184.432 50.2024 184.328 50.7339 184.328 51.3636C184.328 51.9934 184.432 52.5249 184.64 52.9581C184.851 53.3913 185.134 53.7192 185.489 53.9418C185.846 54.1643 186.245 54.2756 186.686 54.2756C186.927 54.2756 187.159 54.2424 187.382 54.1761C187.604 54.1098 187.807 54.0116 187.989 53.8814C188.174 53.7488 188.33 53.5866 188.458 53.3949C188.588 53.2008 188.679 52.9782 188.731 52.7273H189.612C189.546 53.099 189.425 53.4316 189.25 53.7251C189.074 54.0187 188.857 54.2685 188.596 54.4744C188.336 54.678 188.043 54.8331 187.719 54.9396C187.397 55.0462 187.053 55.0994 186.686 55.0994C186.065 55.0994 185.514 54.9479 185.031 54.6449C184.548 54.3419 184.168 53.911 183.891 53.3523C183.614 52.7936 183.475 52.1307 183.475 51.3636C183.475 50.5966 183.614 49.9337 183.891 49.375C184.168 48.8163 184.548 48.3854 185.031 48.0824C185.514 47.7794 186.065 47.6278 186.686 47.6278C187.053 47.6278 187.397 47.6811 187.719 47.7876C188.043 47.8942 188.336 48.0504 188.596 48.2564C188.857 48.46 189.074 48.7086 189.25 49.0021C189.425 49.2933 189.546 49.6259 189.612 50ZM191.035 55V47.7273H191.916V50.9659H195.794V47.7273H196.674V55H195.794V51.7472H191.916V55H191.035ZM199.318 47.7273V55H198.437V47.7273H199.318ZM206.851 47.7273V55H205.999L202.036 49.2898H201.964V55H201.084V47.7273H201.936L205.913 53.4517H205.984V47.7273H206.851ZM208.613 55V47.7273H213.002V48.5085H209.494V50.9659H212.775V51.7472H209.494V54.2188H213.059V55H208.613ZM218.567 49.5455C218.524 49.1856 218.352 48.9062 218.048 48.7074C217.745 48.5085 217.374 48.4091 216.933 48.4091C216.611 48.4091 216.33 48.4612 216.088 48.5653C215.849 48.6695 215.662 48.8127 215.527 48.995C215.395 49.1773 215.328 49.3845 215.328 49.6165C215.328 49.8106 215.374 49.9775 215.467 50.1172C215.561 50.2545 215.682 50.3693 215.829 50.4616C215.976 50.5516 216.13 50.6262 216.291 50.6854C216.452 50.7422 216.6 50.7884 216.735 50.8239L217.473 51.0227C217.663 51.0724 217.873 51.1411 218.105 51.2287C218.34 51.3163 218.563 51.4358 218.776 51.5874C218.992 51.7365 219.169 51.9283 219.309 52.1626C219.449 52.397 219.519 52.6847 219.519 53.0256C219.519 53.4186 219.416 53.7737 219.21 54.0909C219.006 54.4081 218.708 54.6603 218.315 54.8473C217.924 55.0343 217.45 55.1278 216.891 55.1278C216.37 55.1278 215.919 55.0438 215.538 54.8757C215.159 54.7076 214.861 54.4732 214.643 54.1726C214.427 53.8719 214.306 53.5227 214.277 53.125H215.186C215.21 53.3996 215.302 53.6269 215.463 53.8068C215.627 53.9844 215.833 54.117 216.081 54.2045C216.332 54.2898 216.602 54.3324 216.891 54.3324C217.227 54.3324 217.529 54.2779 217.796 54.169C218.064 54.0578 218.276 53.9039 218.432 53.7074C218.588 53.5085 218.666 53.2765 218.666 53.0114C218.666 52.7699 218.599 52.5734 218.464 52.4219C218.329 52.2704 218.151 52.1473 217.931 52.0526C217.711 51.9579 217.473 51.875 217.218 51.804L216.323 51.5483C215.754 51.3849 215.305 51.1518 214.973 50.8487C214.642 50.5457 214.476 50.1491 214.476 49.6591C214.476 49.2519 214.586 48.8968 214.806 48.5938C215.029 48.2884 215.327 48.0516 215.701 47.8835C216.078 47.7131 216.498 47.6278 216.962 47.6278C217.431 47.6278 217.847 47.7119 218.212 47.88C218.576 48.0457 218.865 48.273 219.078 48.5618C219.294 48.8506 219.407 49.1785 219.419 49.5455H218.567Z" fill="#808080"/>
<defs>
<linearGradient id="paint0_linear_252_13139" x1="125" y1="7.82609" x2="125" y2="26.087" gradientUnits="userSpaceOnUse">
<stop stop-color="#8A3B12"/>
<stop offset="0.47498" stop-color="#CD8741"/>
<stop offset="1" stop-color="#D0B238"/>
</linearGradient>
</defs>
</svg>
