<svg width="108" height="108" viewBox="0 0 108 108" fill="none" xmlns="http://www.w3.org/2000/svg">
<g filter="url(#filter0_d_269_13136)">
<g clip-path="url(#clip0_269_13136)">
<rect x="10" y="6" width="88" height="88" rx="12" fill="#616161" fill-opacity="0.15" shape-rendering="crispEdges"/>
<g opacity="0.8">
<path d="M77.415 51.4151L59.415 69.4151C59.0397 69.7904 58.5307 70.0013 58 70.0013C57.4693 70.0013 56.9603 69.7904 56.585 69.4151C56.2097 69.0399 55.9989 68.5309 55.9989 68.0001C55.9989 67.4694 56.2097 66.9604 56.585 66.5851L71.1725 52.0001H32C31.4696 52.0001 30.9609 51.7894 30.5858 51.4144C30.2107 51.0393 30 50.5306 30 50.0001C30 49.4697 30.2107 48.961 30.5858 48.5859C30.9609 48.2108 31.4696 48.0001 32 48.0001H71.1725L56.585 33.4151C56.2097 33.0399 55.9989 32.5309 55.9989 32.0001C55.9989 31.4694 56.2097 30.9604 56.585 30.5851C56.9603 30.2099 57.4693 29.999 58 29.999C58.5307 29.999 59.0397 30.2099 59.415 30.5851L77.415 48.5851C77.601 48.7709 77.7485 48.9915 77.8491 49.2343C77.9498 49.4771 78.0016 49.7373 78.0016 50.0001C78.0016 50.263 77.9498 50.5232 77.8491 50.766C77.7485 51.0088 77.601 51.2294 77.415 51.4151Z" fill="black"/>
</g>
<rect x="10.5" y="6.5" width="87" height="87" rx="11.5" stroke="white" stroke-opacity="0.2"/>
</g>
</g>
<defs>
<filter id="filter0_d_269_13136" x="0" y="0" width="108" height="108" filterUnits="userSpaceOnUse" color-interpolation-filters="sRGB">
<feFlood flood-opacity="0" result="BackgroundImageFix"/>
<feColorMatrix in="SourceAlpha" type="matrix" values="0 0 0 0 0 0 0 0 0 0 0 0 0 0 0 0 0 0 127 0" result="hardAlpha"/>
<feMorphology radius="4" operator="dilate" in="SourceAlpha" result="effect1_dropShadow_269_13136"/>
<feOffset dy="4"/>
<feGaussianBlur stdDeviation="3"/>
<feComposite in2="hardAlpha" operator="out"/>
<feColorMatrix type="matrix" values="0 0 0 0 0.705882 0 0 0 0 0.611765 0 0 0 0 0.772549 0 0 0 0.08 0"/>
<feBlend mode="normal" in2="BackgroundImageFix" result="effect1_dropShadow_269_13136"/>
<feBlend mode="normal" in="SourceGraphic" in2="effect1_dropShadow_269_13136" result="shape"/>
</filter>
<clipPath id="clip0_269_13136">
<rect x="10" y="6" width="88" height="88" rx="12" fill="white"/>
</clipPath>
</defs>
</svg>
